<?xml version="1.0" encoding="UTF-8" standalone="no"?>
<svg
   width="185"
   height="120"
   viewBox="0 0 1332 864"
   version="1.1"
   id="svg138"
   sodipodi:docname="pillars_only_of_Flag_of_State_of_Georgia.svg"
   inkscape:export-filename="Flag_of_the_State_of_Georgia_flag_arch.svg"
   inkscape:export-xdpi="96"
   inkscape:export-ydpi="96"
   inkscape:version="1.2.2 (b0a8486541, 2022-12-01)"
   xmlns:inkscape="http://www.inkscape.org/namespaces/inkscape"
   xmlns:sodipodi="http://sodipodi.sourceforge.net/DTD/sodipodi-0.dtd"
   xmlns="http://www.w3.org/2000/svg"
   xmlns:svg="http://www.w3.org/2000/svg">
  <defs
     id="defs142" />
  <sodipodi:namedview
     id="namedview140"
     pagecolor="#ffffff"
     bordercolor="#000000"
     borderopacity="0.25"
     inkscape:showpageshadow="2"
     inkscape:pageopacity="0.0"
     inkscape:pagecheckerboard="0"
     inkscape:deskcolor="#d1d1d1"
     showgrid="false"
     inkscape:zoom="3.8596245"
     inkscape:cx="133.82131"
     inkscape:cy="114.64846"
     inkscape:window-width="3440"
     inkscape:window-height="1371"
     inkscape:window-x="0"
     inkscape:window-y="0"
     inkscape:window-maximized="1"
     inkscape:current-layer="svg138" />
  <g
     id="g3450">
    <g
       id="g3407">
      <path
         d="m 313.0476,31.71061 c 0.164,-0.07 0.257,-0.09 0.263,-0.09 0.065,-0.02 10.041,3.569 10.126,19.197 8.829,-1.654 12.393,3.009 10.692,13.987 0,0 -10.482,-2.834 -12.193,3.143 -2.57,6.91 -0.61,12.539 5.879,16.888 0,0 10.9,8.638004 17.75906,-7.735 6.859,-16.373 9.328,-21.942 9.328,-21.942 1.907,-6.032 13.264,-20.168 23.578,-22.149 3.929,-1.575 7.69,-1.264 11.886,-0.261 0,0 9.024,1.953 9.28,9.494 0.256,7.541 -2.823,10.822 -7.911,13.01 -5.626,2.419 -12.573,-2.773 -12.573,-2.773 -2.422,-0.453 -3.196,0.385 -4.683,1.417 -0.685,0.475 -3.541,3.61 -5.196,7.139 0,0 -5.009,10.588 -7.398,18.675 -1.882,6.368 -6.03,25.629 -25.53106,28.52001 h -46.022 c -19.501,-2.89101 -23.649,-22.15201 -25.531,-28.52001 -2.389,-8.087 -7.398,-18.675 -7.398,-18.675 -1.655,-3.529 -4.511,-6.664 -5.196,-7.139 -1.487,-1.031 -2.261,-1.869 -4.683,-1.417 0,0 -6.948,5.192 -12.573,2.773 -5.089,-2.188 -8.168,-5.469 -7.912,-13.01 0.257,-7.54 9.281,-9.494 9.281,-9.494 4.196,-1.002 7.957,-1.314 11.886,0.261 10.313,1.981 21.67,16.117 23.577,22.149 0,0 2.469,5.569 9.328,21.942 6.859,16.373004 17.759,7.735 17.759,7.735 6.489,-4.349 8.448,-9.979 5.879,-16.888 -1.711,-5.978 -12.193,-3.143 -12.193,-3.143 -1.701,-10.978 1.863,-15.64 10.691,-13.987 0.086,-15.628 10.062,-19.222 10.127,-19.197 0.01,0 0.099,0.03 0.263,0.09 z"
         fill="#eed000"
         id="path40" />
      <path
         d="M 369.04466,558.73161 H 257.6376 l 14.816,-434.67699 h 82.29506 z m 3.449,241.71595 H 254.1896 l -0.001,-197.39195 118.30506,-0.037 z"
         fill="#eed000"
         fill-rule="evenodd"
         stroke="#002d56"
         stroke-miterlimit="3.864"
         stroke-width="8.489"
         id="path42" />
      <path
         d="m 253.3786,580.54561 h 119.92606 c 8.354,0 15.125,5.091 15.125,11.372 0,6.281 -6.772,11.372 -15.125,11.372 H 253.3786 c -8.353,0 -15.125,-5.091 -15.125,-11.372 -0.001,-6.281 6.771,-11.372 15.125,-11.372 z m 7.619,-21.336 h 104.68806 c 7.438,0 13.468,4.776 13.468,10.668 0,5.892 -6.03,10.668 -13.468,10.668 H 260.9976 c -7.438,0 -13.468,-4.776 -13.468,-10.668 0,-5.892 6.03,-10.668 13.468,-10.668 z"
         fill="#eed000"
         fill-rule="evenodd"
         stroke="#002d56"
         stroke-miterlimit="3.864"
         stroke-width="8.489"
         id="path44" />
      <path
         d="m 281.7396,640.02956 h 63.20406 v 130.138 H 281.7396 Z"
         fill="none"
         stroke="#002d56"
         stroke-miterlimit="3.864"
         stroke-width="8.489"
         id="path46" />
      <path
         d="m 277.0396,110.55762 h 72.60406 c 5.967,0 10.804,3.515 10.804,7.852 0,4.336 -4.837,7.852 -10.804,7.852 H 277.0396 c -5.967,0 -10.804,-3.515 -10.804,-7.852 0,-4.336 4.837,-7.852 10.804,-7.852 z"
         fill="#eed000"
         stroke="#002d56"
         stroke-miterlimit="3.864"
         stroke-width="4.9"
         id="path48" />
      <path
         d="m 229.0696,800.94856 h 168.54406 v 22.744 H 229.0696 Z"
         fill="#eed000"
         fill-rule="evenodd"
         stroke="#002d56"
         stroke-miterlimit="3.864"
         stroke-width="4.083"
         id="path50" />
    </g>
    <g
       id="g3416"
       transform="translate(5.7452213)">
      <path
         d="m 665.45966,32.96061 c 0.164,-0.07 0.257,-0.09 0.263,-0.09 0.064,-0.02 10.041,3.569 10.126,19.197 8.829,-1.654 12.393,3.009 10.691,13.987 0,0 -10.482,-2.834 -12.193,3.143 -2.57,6.91 -0.61,12.539 5.879,16.888 0,0 10.9,8.638004 17.759,-7.735 6.859,-16.373 9.328,-21.942 9.328,-21.942 1.908,-6.032 13.265,-20.168 23.578,-22.149 3.929,-1.575 7.69,-1.264 11.886,-0.261 0,0 9.024,1.953 9.28,9.494 0.257,7.54 -2.822,10.822 -7.911,13.01 -5.626,2.419 -12.573,-2.773 -12.573,-2.773 -2.422,-0.453 -3.195,0.385 -4.683,1.417 -0.685,0.475 -3.541,3.61 -5.196,7.139 0,0 -5.009,10.588 -7.398,18.675 -1.882,6.368 -6.03,25.62901 -25.531,28.52001 h -46.022 c -19.501,-2.891 -23.649,-22.15201 -25.531,-28.52001 -2.39,-8.087 -7.398,-18.675 -7.398,-18.675 -1.655,-3.529 -4.511,-6.664 -5.196,-7.139 -1.487,-1.031 -2.261,-1.869 -4.683,-1.417 0,0 -6.948,5.192 -12.574,2.773 -5.089,-2.188 -8.168,-5.469 -7.911,-13.01 0.257,-7.541 9.281,-9.494 9.281,-9.494 4.196,-1.002 7.957,-1.314 11.886,0.261 10.313,1.981 21.67,16.117 23.577,22.149 0,0 2.469,5.569 9.328,21.942 6.858,16.373004 17.759,7.735 17.759,7.735 6.489,-4.349 8.448,-9.979 5.879,-16.888 -1.71,-5.978 -12.193,-3.143 -12.193,-3.143 -1.701,-10.978 1.862,-15.64 10.691,-13.987 0.085,-15.628 10.062,-19.222 10.127,-19.197 0.01,0 0.099,0.03 0.263,0.09 z"
         fill="#eed000"
         id="path12" />
      <path
         d="m 722.72966,558.73161 h -111.407 l 13.148,-434.67699 h 85.629 z m -0.477,241.71595 h -118.304 l -0.005,-197.39195 118.309,-0.037 z"
         fill="#eed000"
         fill-rule="evenodd"
         stroke="#002d56"
         stroke-miterlimit="3.864"
         stroke-width="8.489"
         id="path14" />
      <path
         d="m 602.01166,580.54561 h 119.926 c 8.354,0 15.125,5.091 15.125,11.372 0,6.281 -6.772,11.372 -15.125,11.372 h -119.926 c -8.354,0 -15.125,-5.091 -15.125,-11.372 0,-6.281 6.771,-11.372 15.125,-11.372 z"
         fill="#eed000"
         stroke="#002d56"
         stroke-miterlimit="3.864"
         stroke-width="8.489"
         id="path16" />
      <path
         d="m 610.90366,559.20961 h 104.688 c 7.438,0 13.468,4.776 13.468,10.668 0,5.892 -6.03,10.668 -13.468,10.668 h -104.688 c -7.438,0 -13.468,-4.776 -13.468,-10.668 0,-5.892 6.03,-10.668 13.468,-10.668 z"
         fill="#eed000"
         fill-rule="evenodd"
         stroke="#002d56"
         stroke-miterlimit="3.864"
         stroke-width="8.489"
         id="path18" />
      <path
         d="m 630.64666,640.02956 h 63.204 v 130.138 h -63.204 z"
         fill="none"
         stroke="#002d56"
         stroke-miterlimit="3.864"
         stroke-width="8.489"
         id="path20" />
      <path
         d="m 629.32966,108.89262 h 72.604 c 5.967,0 10.804,3.515 10.804,7.852 0,4.336 -4.837,7.851 -10.804,7.851 h -72.604 c -5.967,0 -10.804,-3.515 -10.804,-7.851 10e-4,-4.336 4.838,-7.852 10.804,-7.852 z"
         fill="#eed000"
         stroke="#002d56"
         stroke-miterlimit="3.864"
         stroke-width="4.9"
         id="path22" />
      <path
         d="m 576.07866,800.94856 h 168.544 v 22.744 h -168.544 z"
         fill="#eed000"
         fill-rule="evenodd"
         stroke="#002d56"
         stroke-miterlimit="3.864"
         stroke-width="4.083"
         id="path64" />
    </g>
    <g
       id="g3425">
      <path
         d="m 1023.9646,32.96061 c 0.164,-0.07 0.257,-0.09 0.263,-0.09 0.065,-0.02 10.042,3.569 10.127,19.197 8.829,-1.654 12.393,3.009 10.691,13.987 0,0 -10.482,-2.834 -12.193,3.143 -2.57,6.91 -0.61,12.539 5.879,16.888 0,0 10.9,8.638004 17.759,-7.735 6.859,-16.373 9.328,-21.942 9.328,-21.942 1.908,-6.032 13.264,-20.168 23.578,-22.149 3.929,-1.575 7.69,-1.264 11.886,-0.261 0,0 9.024,1.953 9.28,9.494 0.257,7.54 -2.822,10.822 -7.912,13.01 -5.625,2.419 -12.573,-2.773 -12.573,-2.773 -2.422,-0.453 -3.195,0.385 -4.683,1.417 -0.685,0.475 -3.541,3.61 -5.196,7.139 0,0 -5.009,10.588 -7.398,18.675 -1.882,6.368 -6.03,25.62901 -25.531,28.52001 h -46.022 c -19.50096,-2.891 -23.64896,-22.15201 -25.53096,-28.52001 -2.39,-8.087 -7.399,-18.675 -7.399,-18.675 -1.655,-3.529 -4.51,-6.664 -5.196,-7.139 -1.487,-1.031 -2.261,-1.869 -4.683,-1.417 0,0 -6.948,5.192 -12.574,2.773 -5.089,-2.188 -8.168,-5.469 -7.911,-13.01 0.257,-7.541 9.281,-9.494 9.281,-9.494 4.196,-1.002 7.957,-1.314 11.886,0.261 10.313,1.981 21.67,16.117 23.578,22.149 0,0 2.469,5.569 9.328,21.942 6.858,16.373004 17.75896,7.735 17.75896,7.735 6.488,-4.349 8.448,-9.979 5.878,-16.888 -1.71,-5.978 -12.193,-3.143 -12.193,-3.143 -1.701,-10.978 1.862,-15.64 10.691,-13.987 0.085,-15.628 10.062,-19.222 10.126,-19.197 0.01,0 0.099,0.03 0.263,0.09 z"
         fill="#eed000"
         id="path52" />
      <path
         d="M 1082.0756,558.73161 H 970.66864 l 14.815,-434.67699 h 82.29596 z m 6.152,241.71595 H 969.92264 l -1.248,-197.39195 119.55296,-0.037 z"
         fill="#eed000"
         fill-rule="evenodd"
         stroke="#002d56"
         stroke-miterlimit="3.864"
         stroke-width="8.489"
         id="path54" />
      <path
         d="m 968.82964,580.54561 h 119.92596 c 8.354,0 15.125,5.091 15.125,11.372 0,6.281 -6.772,11.372 -15.125,11.372 H 968.82964 c -8.354,0 -15.125,-5.091 -15.125,-11.372 0,-6.281 6.771,-11.372 15.125,-11.372 z"
         fill="#eed000"
         stroke="#002d56"
         stroke-miterlimit="3.864"
         stroke-width="8.489"
         id="path56" />
      <path
         d="m 974.92164,559.20961 h 104.68796 c 7.438,0 13.468,4.776 13.468,10.668 0,5.892 -6.03,10.668 -13.468,10.668 H 974.92164 c -7.438,0 -13.468,-4.776 -13.468,-10.668 0,-5.892 6.029,-10.668 13.468,-10.668 z"
         fill="#eed000"
         fill-rule="evenodd"
         stroke="#002d56"
         stroke-miterlimit="3.864"
         stroke-width="8.489"
         id="path58" />
      <path
         d="m 996.38164,640.02956 h 63.20396 v 130.138 h -63.20396 z"
         fill="none"
         stroke="#002d56"
         stroke-miterlimit="3.864"
         stroke-width="8.489"
         id="path60" />
      <path
         d="m 989.51164,108.89262 h 72.60396 c 5.967,0 10.804,3.515 10.804,7.852 0,4.336 -4.837,7.851 -10.804,7.851 h -72.60396 c -5.967,0 -10.804,-3.515 -10.804,-7.851 0,-4.336 4.837,-7.852 10.804,-7.852 z"
         fill="#eed000"
         stroke="#002d56"
         stroke-miterlimit="3.864"
         stroke-width="4.9"
         id="path62" />
      <path
         d="m 944.80364,800.94856 h 168.54296 v 22.744 H 944.80364 Z"
         fill="#eed000"
         fill-rule="evenodd"
         stroke="#002d56"
         stroke-miterlimit="3.864"
         stroke-width="0.68"
         id="path134" />
    </g>
  </g>
</svg>
